<?xml version="1.0" encoding="UTF-8"?>
<svg width="800" height="600" viewBox="0 0 800 600" fill="none" xmlns="http://www.w3.org/2000/svg">
  <!-- Background Gradient -->
  <defs>
    <linearGradient id="grad1" x1="0%" y1="0%" x2="100%" y2="100%">
      <stop offset="0%" style="stop-color:#6366F1;stop-opacity:0.1" />
      <stop offset="100%" style="stop-color:#EC4899;stop-opacity:0.1" />
    </linearGradient>
    <linearGradient id="grad2" x1="0%" y1="0%" x2="100%" y2="100%">
      <stop offset="0%" style="stop-color:#6366F1" />
      <stop offset="100%" style="stop-color:#EC4899" />
    </linearGradient>
  </defs>
  
  <!-- Abstract Background Shape -->
  <path d="M100,300 Q400,100 700,300 Q400,500 100,300" fill="url(#grad1)" />
  
  <!-- Project Board -->
  <rect x="200" y="150" width="400" height="300" rx="20" fill="#ffffff" filter="drop-shadow(0px 8px 24px rgba(99, 102, 241, 0.2))" />
  
  <!-- Board Header -->
  <rect x="200" y="150" width="400" height="50" rx="20" fill="url(#grad2)" />
  
  <!-- Task Cards -->
  <rect x="220" y="220" width="110" height="90" rx="10" fill="#F1F5F9" />
  <rect x="345" y="220" width="110" height="90" rx="10" fill="#F1F5F9" />
  <rect x="470" y="220" width="110" height="90" rx="10" fill="#F1F5F9" />
  
  <rect x="220" y="330" width="110" height="90" rx="10" fill="#F1F5F9" />
  <rect x="345" y="330" width="110" height="90" rx="10" fill="#F1F5F9" />
  <rect x="470" y="330" width="110" height="90" rx="10" fill="#F1F5F9" />
  
  <!-- Decorative Elements -->
  <circle cx="230" cy="175" r="5" fill="#ffffff" />
  <circle cx="250" cy="175" r="5" fill="#ffffff" />
  <circle cx="270" cy="175" r="5" fill="#ffffff" />
  
  <!-- Animation Elements -->
  <g>
    <rect x="235" y="240" width="80" height="8" rx="4" fill="#6366F1" opacity="0.3" />
    <rect x="235" y="260" width="60" height="8" rx="4" fill="#6366F1" opacity="0.2" />
    <rect x="235" y="280" width="40" height="8" rx="4" fill="#6366F1" opacity="0.1" />
  </g>
  
  <g>
    <rect x="360" y="240" width="80" height="8" rx="4" fill="#EC4899" opacity="0.3" />
    <rect x="360" y="260" width="60" height="8" rx="4" fill="#EC4899" opacity="0.2" />
    <rect x="360" y="280" width="40" height="8" rx="4" fill="#EC4899" opacity="0.1" />
  </g>
  
  <g>
    <rect x="485" y="240" width="80" height="8" rx="4" fill="#6366F1" opacity="0.3" />
    <rect x="485" y="260" width="60" height="8" rx="4" fill="#6366F1" opacity="0.2" />
    <rect x="485" y="280" width="40" height="8" rx="4" fill="#6366F1" opacity="0.1" />
  </g>
</svg>