<?xml version="1.0" encoding="UTF-8"?>
<svg width="200" height="50" viewBox="0 0 200 50" fill="none" xmlns="http://www.w3.org/2000/svg">
  <!-- Gradient definitions -->
  <defs>
    <linearGradient id="grad" x1="0%" y1="0%" x2="100%" y2="100%">
      <stop offset="0%" style="stop-color:#6366F1" />
      <stop offset="100%" style="stop-color:#EC4899" />
    </linearGradient>
  </defs>
  
  <!-- Icon part -->
  <g transform="translate(0, 5)">
    <path d="M10,20 C10,13.4 15.4,8 22,8 L28,8 C34.6,8 40,13.4 40,20 L40,26 C40,32.6 34.6,38 28,38 L22,38 C15.4,38 10,32.6 10,20 Z" fill="url(#grad)" />
    <rect x="17" y="16" width="16" height="3" rx="1.5" fill="white" />
    <rect x="17" y="22" width="16" height="3" rx="1.5" fill="white" />
    <rect x="17" y="28" width="10" height="3" rx="1.5" fill="white" />
  </g>
  
  <!-- Text part -->
  <g fill="url(#grad)">
    <path d="M55,15 L55,36 L60,36 L60,15 L67,15 L67,11 L48,11 L48,15 L55,15 Z" />
    <path d="M75,15 C70.5,15 67,18.5 67,23 L67,36 L72,36 L72,24 C72,21.2 73.2,20 75,20 C76.8,20 78,21.2 78,24 L78,36 L83,36 L83,23 C83,18.5 79.5,15 75,15 Z" />
    <path d="M96,15 L90,15 L90,36 L95,36 L95,26 L101,26 L101,36 L106,36 L106,15 L101,15 L101,22 L95,22 L95,15 L96,15 Z" />
    <path d="M115,15 L110,15 L110,36 L115,36 L115,15 Z" />
    <path d="M129,15 L124,15 L118,36 L123,36 L127,21 L131,36 L136,36 L130,15 Z" />
    <path d="M145,15 L138.5,15 C134,15 131,18.5 131,23 L131,28 C131,32.5 134,36 138.5,36 L145,36 C149.5,36 152.5,32.5 152.5,28 L152.5,23 C152.5,18.5 149.5,15 145,15 Z M147.5,28 C147.5,29.7 146.7,31 145,31 L138.5,31 C136.8,31 136,29.7 136,28 L136,23 C136,21.3 136.8,20 138.5,20 L145,20 C146.7,20 147.5,21.3 147.5,23 L147.5,28 Z" />
    <path d="M167,15 L155,15 L155,36 L160,36 L160,29 L167,29 C170.3,29 173,26.3 173,22 C173,17.7 170.3,15 167,15 Z M166,24 L160,24 L160,20 L166,20 C167.1,20 168,20.9 168,22 C168,23.1 167.1,24 166,24 Z" />
  </g>
</svg>